<?xml version="1.0" encoding="UTF-8" standalone="no"?>
<svg
   xmlns:dc="http://purl.org/dc/elements/1.1/"
   xmlns:cc="http://creativecommons.org/ns#"
   xmlns:rdf="http://www.w3.org/1999/02/22-rdf-syntax-ns#"
   xmlns:svg="http://www.w3.org/2000/svg"
   xmlns="http://www.w3.org/2000/svg"
   xmlns:sodipodi="http://sodipodi.sourceforge.net/DTD/sodipodi-0.dtd"
   xmlns:inkscape="http://www.inkscape.org/namespaces/inkscape"
   version="1.1"
   viewBox="0 0 779.99998 190"
   stroke-miterlimit="10"
   id="svg2"
   inkscape:version="0.91 r13725"
   sodipodi:docname="WikiCite_2017_banner.svg"
   width="780"
   height="190"
   style="fill:none;stroke:none;stroke-linecap:square;stroke-miterlimit:10">
  <metadata
     id="metadata33">
    <rdf:RDF>
      <cc:Work
         rdf:about="">
        <dc:format>image/svg+xml</dc:format>
        <dc:type
           rdf:resource="http://purl.org/dc/dcmitype/StillImage" />
        <dc:title></dc:title>
      </cc:Work>
    </rdf:RDF>
  </metadata>
  <defs
     id="defs31" />
  <sodipodi:namedview
     pagecolor="#ffffff"
     bordercolor="#666666"
     borderopacity="1"
     objecttolerance="10"
     gridtolerance="10"
     guidetolerance="10"
     inkscape:pageopacity="0"
     inkscape:pageshadow="2"
     inkscape:window-width="1920"
     inkscape:window-height="1044"
     id="namedview29"
     showgrid="false"
     inkscape:zoom="0.50692461"
     inkscape:cx="397.32473"
     inkscape:cy="127.70875"
     inkscape:window-x="0"
     inkscape:window-y="36"
     inkscape:window-maximized="1"
     inkscape:current-layer="g7"
     fit-margin-top="0"
     fit-margin-left="0"
     fit-margin-right="0"
     fit-margin-bottom="0" />
  <clipPath
     id="p.0">
    <path
       d="m 0,0 747.6457,0 0,267.38058 L 0,267.38058 0,0 Z"
       id="path5"
       inkscape:connector-curvature="0"
       style="clip-rule:nonzero" />
  </clipPath>
  <g
     clip-path="url(#p.0)"
     id="g7"
     transform="translate(8.0485575,-71.399051)">
    <g
       id="g3361"
       transform="matrix(1.1393181,0,0,1.1393181,-58.123232,25.566181)">
      <path
         style="fill:#000000;fill-opacity:0;fill-rule:nonzero"
         inkscape:connector-curvature="0"
         id="path11"
         d="m 170.14043,40.228348 557.95276,0 0,155.181102 -557.95276,0 z" />
      <path
         style="fill:#999999;fill-rule:nonzero"
         inkscape:connector-curvature="0"
         id="path13"
         d="m 222.56294,104.05951 q 0,-1.92187 2,-3.28125 2,-1.359375 4.23437,-1.359375 2.875,0 3.67188,2.406255 l 20.48437,56.95312 16.48436,-52 q 0.79688,-2.71875 4.15625,-2.71875 3.35938,0 4.15625,2.71875 l 15.84375,52.64062 20.96875,-57.59375 q 0.46875,-2.406245 3.51563,-2.406245 2.23437,0 4.23437,1.281245 2,1.28125 2,3.35938 0,1.4375 -0.64062,2.40625 l -24.95313,67.67187 q -0.79687,2.5625 -4.15625,2.5625 -3.04687,0 -4.32812,-2.40625 l -16.64063,-52 -16.48437,51.20313 q -0.95313,3.20312 -4.64061,3.20312 -3.35937,0 -4.3125,-3.20312 l -24.95312,-67.03125 q -0.64063,-1.28125 -0.64063,-2.40625 z M 336.95486,75.34076 q -2.07813,-2 -2.07813,-4.71875 0,-2.71875 2.07813,-4.640625 2.07812,-1.921875 5.125,-1.921875 2.875,0 4.875,1.921875 2,1.921875 2,4.640625 0,2.71875 -2,4.71875 -2,2 -4.875,2 -3.04688,0 -5.125,-2 z m 0,95.92187 0,-67.6875 q 0,-1.59375 1.4375,-2.71875 1.4375,-1.124995 3.67187,-1.124995 2.25,0 3.76563,1.124995 1.53125,1.125 1.53125,2.71875 l 0,67.6875 q 0,1.59375 -1.60938,2.875 -1.59375,1.28125 -3.67187,1.28125 -2.07813,0 -3.60938,-1.28125 -1.51562,-1.28125 -1.51562,-2.875 z m 30.56003,0 0,-114.07812 q 0,-1.609375 1.4375,-2.71875 1.4375,-1.125 3.67187,-1.125 2.25,0 3.76563,1.125 1.53125,1.109375 1.53125,2.71875 l 0,77.92187 39.03125,-34.73437 q 1.60937,-0.953125 2.40625,-0.953125 1.92187,0 3.59375,1.531245 1.6875,1.51563 1.6875,3.4375 0,1.90625 -1.125,2.875 l -23.51563,20.64063 27.67185,40.46875 q 0.64062,1.28125 0.64062,2.25 0,1.75 -1.76562,3.51562 -1.74997,1.76563 -3.8281,1.76563 -1.92187,0 -3.20312,-1.92188 l -26.875,-39.51562 -14.71875,12.95312 0,23.84375 q 0,1.59375 -1.53125,2.875 -1.51563,1.28125 -3.75,1.28125 -2.07813,0 -3.60938,-1.28125 -1.51562,-1.28125 -1.51562,-2.875 z m 72.96002,-95.92187 q -2.07813,-2 -2.07813,-4.71875 0,-2.71875 2.07813,-4.640625 2.07812,-1.921875 5.125,-1.921875 2.875,0 4.875,1.921875 2,1.921875 2,4.640625 0,2.71875 -2,4.71875 -2,2 -4.875,2 -3.04688,0 -5.125,-2 z m 0,95.92187 0,-67.6875 q 0,-1.59375 1.4375,-2.71875 1.4375,-1.124995 3.67187,-1.124995 2.25,0 3.76563,1.124995 1.53125,1.125 1.53125,2.71875 l 0,67.6875 q 0,1.59375 -1.60938,2.875 -1.59375,1.28125 -3.67187,1.28125 -2.07813,0 -3.60938,-1.28125 -1.51562,-1.28125 -1.51562,-2.875 z" />
      <path
         style="fill:#000000;fill-rule:nonzero"
         inkscape:connector-curvature="0"
         id="path15"
         d="m 468.3162,146.13763 0,-17.125 q 0,-13.4375 7.84375,-21.82812 7.84375,-8.406255 23.03125,-8.406255 9.60937,0 16.07816,3.437505 6.48437,3.4375 6.48437,6.96875 0,1.75 -1.4375,3.4375 -1.4375,1.67187 -3.20312,1.67187 -0.95313,0 -2.95313,-1.4375 -2,-1.4375 -5.68753,-2.95312 -3.67187,-1.53125 -8.79687,-1.53125 -10.23438,0 -15.59375,5.45312 -5.35938,5.4375 -5.35938,15.1875 l 0,17.125 q 0,9.92187 5.35938,15.35937 5.35937,5.4375 15.75,5.4375 5.4375,0 9.20312,-1.51562 3.76566,-1.51563 5.76566,-3.03125 2,-1.53125 3.10937,-1.53125 2.09375,0 3.45313,1.60937 1.35937,1.59375 1.35937,3.51563 0,3.67187 -6.73437,7.125 -6.71878,3.4375 -16.62503,3.4375 -15.35938,0 -23.20313,-8.3125 -7.84375,-8.32813 -7.84375,-22.09375 z m 68.47879,-70.796875 q -2.07813,-2 -2.07813,-4.71875 0,-2.71875 2.07813,-4.640625 2.07812,-1.921875 5.125,-1.921875 2.875,0 4.875,1.921875 2,1.921875 2,4.640625 0,2.71875 -2,4.71875 -2,2 -4.875,2 -3.04688,0 -5.125,-2 z m 0,95.921875 0,-67.6875 q 0,-1.59375 1.4375,-2.71875 1.4375,-1.125 3.67187,-1.125 2.25,0 3.76563,1.125 1.53125,1.125 1.53125,2.71875 l 0,67.6875 q 0,1.59375 -1.60938,2.875 -1.59375,1.28125 -3.67187,1.28125 -2.07813,0 -3.60938,-1.28125 -1.51562,-1.28125 -1.51562,-2.875 z m 30.24756,-19.35938 0,-84.32812 q 0,-1.59375 1.59375,-2.71875 1.59375,-1.125 3.51562,-1.125 2.07813,0 3.67188,1.125 1.60937,1.125 1.60937,2.71875 l 0,32.15625 20.64063,0 q 1.60937,0 2.64062,1.28125 1.04688,1.28125 1.04688,3.04688 0,1.76562 -1.04688,3.04687 -1.03125,1.26563 -2.64062,1.26563 l -20.64063,0 0,43.53124 q 0,7.82813 3.28125,10.95313 3.28125,3.125 11.60938,3.125 l 4.46875,0 q 2.07812,0 3.4375,1.35937 1.35937,1.35938 1.35937,3.28125 0,1.92188 -1.35937,3.35938 -1.35938,1.4375 -3.4375,1.4375 l -4.46875,0 q -25.28125,0 -25.28125,-23.51563 z m 44.95752,-5.76562 0,-17.92188 q 0,-11.99999 8.95312,-20.71874 8.96875,-8.718755 21.60938,-8.718755 12.15625,0 21.03125,8.328125 8.89062,8.3125 8.89062,20.79688 0,4.46874 -1.04687,7.20312 -1.04688,2.71875 -3.375,3.84375 -2.3125,1.10937 -4.23438,1.4375 -1.90625,0.3125 -5.26562,0.3125 l -36.17188,0 0,5.92187 q 0,9.4375 6.79688,15.125 6.8125,5.67188 17.53125,5.67188 5.4375,0 9.51562,-1.59375 4.07813,-1.60938 6.23438,-3.20313 2.17187,-1.60937 3.45312,-1.60937 1.75,0 3.10938,1.6875 1.35937,1.67187 1.35937,3.28125 0,3.35937 -6.875,6.96875 -6.875,3.59375 -17.125,3.59375 -15.1875,0 -24.79687,-8.40625 -9.59375,-8.40625 -9.59375,-22 z m 10.39062,-13.125 32,0 q 4.8125,0 6.40625,-1.03125 1.59375,-1.04688 1.59375,-4.40625 0,-8 -5.6875,-14.07812 -5.67187,-6.07813 -14.3125,-6.07813 -8.3125,0 -14.15625,5.76563 -5.84375,5.75 -5.84375,13.75 l 0,6.07812 z" />
      <path
         style="fill:#000000;fill-opacity:0;fill-rule:nonzero"
         inkscape:connector-curvature="0"
         id="path17"
         d="m 43.951443,56.790028 90.110227,0 0,150.204732 -90.110227,0 z" />
      <path
         style="fill:#999999;fill-rule:nonzero"
         inkscape:connector-curvature="0"
         id="path19"
         d="m 70.51905,131.258 q -1.515625,-1.125 -1.515625,-3.35937 0,-2.25 1.515625,-3.28125 1.53125,-1.04688 3.28125,-1.125 1.765625,-0.0781 3.28125,-0.875 1.53125,-0.8125 1.53125,-2.5625 0,-1.28125 -1.53125,-12.875 -1.515625,-11.60938 -1.515625,-14.32813 0,-10.40625 8.875,-18.3125 8.890625,-7.921875 20.890625,-7.921875 2.71876,0 4.07813,1.4375 1.35938,1.4375 1.35938,3.359375 0,1.765625 -1.125,3.203125 -1.125,1.4375 -2.71876,1.4375 -8.3125,0 -14.5625,5.359375 -6.234375,5.359375 -6.234375,12.71875 0,2.5625 1.515625,13.92188 1.515625,11.35937 1.515625,12.79687 0,2.5625 -2,4.64063 -2,2.07812 -3.75,2.56249 1.921875,0.3125 3.828125,2.3125 1.921875,2 1.921875,4.71875 0,1.60938 -1.515625,15.6875 -1.515625,14.07813 -1.515625,16.95313 0,8 6.875,11.76562 6.890625,3.76563 13.921875,3.76563 3.84376,0 3.84376,4.64062 0,4.79688 -5.60939,4.79688 -12.312495,0 -20.95312,-6.875 -8.640625,-6.89063 -8.640625,-17.60938 0,-2.875 1.515625,-17.03125 1.53125,-14.17187 1.53125,-15.45312 0,-1.75 -1.53125,-2.54688 -1.515625,-0.8125 -3.28125,-0.8125 -1.75,0 -3.28125,-1.10937 z" />
      <path
         style="fill:#000000;fill-opacity:0;fill-rule:nonzero"
         inkscape:connector-curvature="0"
         id="path21"
         d="m 123.479,56.559055 90.11023,0 0,150.204735 -90.11023,0 z" />
      <path
         style="fill:#000000;fill-rule:nonzero"
         inkscape:connector-curvature="0"
         id="path23"
         d="m 146.78099,187.66765 q 0,-4.64063 3.82812,-4.64063 7.04688,0 13.92188,-3.76562 6.89062,-3.76563 6.89062,-11.76563 0,-2.875 -1.53125,-16.95312 -1.51562,-14.07813 -1.51562,-15.6875 0,-2.71875 1.92187,-4.71875 1.92188,-2 3.84375,-2.3125 -1.76562,-0.48437 -3.76562,-2.5625 -2,-2.07812 -2,-4.64062 0,-1.4375 1.51562,-12.79688 1.53125,-11.359375 1.53125,-13.921875 0,-7.359375 -6.25,-12.71875 -6.23437,-5.359375 -14.5625,-5.359375 -1.59375,0 -2.71875,-1.4375 -1.10937,-1.4375 -1.10937,-3.203125 0,-1.921875 1.35937,-3.359375 1.35938,-1.4375 4.07813,-1.4375 12,0 20.875,7.921875 8.875,7.90625 8.875,18.3125 0,2.71875 -1.51563,14.328125 -1.51562,11.59375 -1.51562,12.875 0,1.75 1.51562,2.5625 1.51563,0.79688 3.28125,0.875 1.76563,0.0781 3.28125,1.125 1.51563,1.03125 1.51563,3.28125 0,2.23437 -1.51563,3.35937 -1.51562,1.10938 -3.28125,1.10938 -1.76562,0 -3.28125,0.8125 -1.51562,0.79687 -1.51562,2.54687 0,1.28125 1.51562,15.45313 1.51563,14.15625 1.51563,17.03125 0,10.71875 -8.64063,17.60937 -8.64062,6.875 -20.95312,6.875 -5.59375,0 -5.59375,-4.79687 z" />
    </g>
  </g>
</svg>
